<svg xmlns="http://www.w3.org/2000/svg" height="16" width="16">
    <path opacity=".5" fill="none" d="M0 0h16v16H0z"/>
    <path style="text-indent:0;text-align:start;text-transform:none;block-progression:tb" d="M9.748 7.011a.944 1 0 0 0 .187 1.978h4.981a.944 1 0 1 0 0-1.978H9.935a.944 1 0 0 0-.187 0zM.757 7.01c-.454.1-.796.593-.75 1.079.046.485.474.897.939.902h4.962c.54.084 1.095-.417 1.095-.991 0-.574-.554-1.075-1.095-.99H.946a.858.858 0 0 0-.189 0zM6.058 4.016a2.49 2.49 0 0 0-1.906 1.468 2.682 2.682 0 0 0-.156.53h8c-.026-.125-.053-.262-.094-.374A2.466 2.466 0 0 0 9.56 4.016H6.433c-.127 0-.253-.018-.375 0zM3.996 10.01c.235 1.131 1.24 1.998 2.436 1.998H9.56c1.197 0 2.2-.867 2.436-1.998z" color="#000" fill="#bebebe"/>
</svg>
