<svg xmlns="http://www.w3.org/2000/svg" xmlns:xlink="http://www.w3.org/1999/xlink" width="128" height="128"><defs><clipPath id="j"><path d="M0 0h128v128H0z"/></clipPath><clipPath id="a"><path d="M0 0h128v128H0z"/></clipPath><clipPath id="d"><path d="M0 0h128v128H0z"/></clipPath><clipPath id="h"><path d="M0 0h128v128H0z"/></clipPath><g id="g" clip-path="url(#d)" filter="url(#e)"><use xlink:href="#f"/></g><g id="f" clip-path="url(#a)"><path d="M20 16h88a8 8 0 018 8v84a8 8 0 01-8 8H20a8 8 0 01-8-8V24a8 8 0 018-8zm0 0" fill="url(#b)"/><path d="M20 12h88a8 8 0 018 8v76a8 8 0 01-8 8H20a8 8 0 01-8-8V20a8 8 0 018-8zm0 0" fill="#f9f06b"/><path d="M116 80l-24 24h16c4.434 0 8-3.566 8-8zm0 0" fill="#f8ed4a"/><path d="M100 80a7.98 7.98 0 00-8 8v16l24-24zm0 0" fill="url(#c)"/><path d="M116 100.656a7.465 7.465 0 01-7.492 7.344h-.5v1h.5a8.49 8.49 0 007.492-4.48zM74 108l34 1v-1zm0 0" fill-opacity=".059"/><path d="M116 104.656a7.465 7.465 0 01-7.492 7.344h-.5v1h.5a8.486 8.486 0 007.46-4.426c.016-.191.032-.383.032-.574zM74 112l34 1v-1zm0 0" fill-opacity=".043"/><path d="M24 40h80v8H24zm0 0M24 56h80v8H24zm0 0M24 72h42v8H24zm0 0M20 12a7.98 7.98 0 00-8 8v10h104V20c0-4.66-3.566-8-8-8zm0 0" fill="#f6d32d"/><path d="M12 28h104v2H12zm0 0" fill="#f5c211"/></g><g id="k" clip-path="url(#h)"><path d="M128 80.64V128H0V80.64zm0 0" fill="url(#i)"/><path d="M13.309 80.64L60.664 128H81.88l-47.36-47.36zm42.421 0L103.094 128h21.215L76.945 80.64zm42.43 0L128 110.48V89.27l-8.629-8.63zM0 88.548v21.215L18.238 128h21.215zm0 0"/></g><g id="o" clip-path="url(#j)"><use xlink:href="#k" mask="url(#l)"/></g><linearGradient id="i" gradientUnits="userSpaceOnUse" x1="300" y1="235" x2="428" y2="235" gradientTransform="matrix(0 .37 -.98462 0 295.385 -30.36)"><stop offset="0" stop-color="#f9f06b"/><stop offset="1" stop-color="#f5c211"/></linearGradient><linearGradient id="b" gradientUnits="userSpaceOnUse" x1="461.963" y1="204" x2="45.963" y2="204" gradientTransform="matrix(.25 0 0 .25 .51 53)"><stop offset="0" stop-color="#f5c211"/><stop offset=".042" stop-color="#f8e45c"/><stop offset=".083" stop-color="#f6d32d"/><stop offset=".917" stop-color="#f5c211"/><stop offset=".958" stop-color="#f8e45c"/><stop offset="1" stop-color="#f5c211"/></linearGradient><linearGradient id="m" gradientUnits="userSpaceOnUse" x1="461.963" y1="204" x2="45.963" y2="204" gradientTransform="matrix(.25 0 0 .25 .51 53)"><stop offset="0" stop-color="#f5c211"/><stop offset=".042" stop-color="#f8e45c"/><stop offset=".083" stop-color="#f6d32d"/><stop offset=".917" stop-color="#f5c211"/><stop offset=".958" stop-color="#f8e45c"/><stop offset="1" stop-color="#f5c211"/></linearGradient><radialGradient id="n" gradientUnits="userSpaceOnUse" cx="405" cy="151" fx="405" fy="151" r="48" gradientTransform="matrix(1.46 -1.46 .0296 .0296 -490.52 677.58)"><stop offset="0" stop-color="#f6d32d"/><stop offset="1" stop-color="#fcf9c0"/></radialGradient><radialGradient id="c" gradientUnits="userSpaceOnUse" cx="405" cy="151" fx="405" fy="151" r="48" gradientTransform="matrix(1.46 -1.46 .0296 .0296 -490.52 677.58)"><stop offset="0" stop-color="#f6d32d"/><stop offset="1" stop-color="#fcf9c0"/></radialGradient><mask id="p"><use xlink:href="#g"/></mask><mask id="l"><g filter="url(#e)"><path fill-opacity=".8" d="M0 0h128v128H0z"/></g></mask><filter id="e" filterUnits="objectBoundingBox" x="0%" y="0%" width="100%" height="100%"><feColorMatrix in="SourceGraphic" values="0 0 0 0 1 0 0 0 0 1 0 0 0 0 1 0 0 0 1 0"/></filter></defs><path d="M20 16h88a8 8 0 018 8v84a8 8 0 01-8 8H20a8 8 0 01-8-8V24a8 8 0 018-8zm0 0" fill="url(#m)"/><path d="M20 12h88a8 8 0 018 8v76a8 8 0 01-8 8H20a8 8 0 01-8-8V20a8 8 0 018-8zm0 0" fill="#f9f06b"/><path d="M116 80l-24 24h16c4.434 0 8-3.566 8-8zm0 0" fill="#f8ed4a"/><path d="M100 80a7.98 7.98 0 00-8 8v16l24-24zm0 0" fill="url(#n)"/><path d="M116 100.656a7.465 7.465 0 01-7.492 7.344h-.5v1h.5a8.49 8.49 0 007.492-4.48zM74 108l34 1v-1zm0 0" fill-opacity=".059"/><path d="M116 104.656a7.465 7.465 0 01-7.492 7.344h-.5v1h.5a8.486 8.486 0 007.46-4.426c.016-.191.032-.383.032-.574zM74 112l34 1v-1zm0 0" fill-opacity=".043"/><path d="M24 40h80v8H24zm0 0M24 56h80v8H24zm0 0M24 72h42v8H24zm0 0M20 12a7.98 7.98 0 00-8 8v10h104V20c0-4.66-3.566-8-8-8zm0 0" fill="#f6d32d"/><path d="M12 28h104v2H12zm0 0" fill="#f5c211"/><use xlink:href="#o" mask="url(#p)"/></svg>