<?xml version="1.0" encoding="UTF-8" standalone="no"?>
<!-- Created with Inkscape (http://www.inkscape.org/) -->
<svg xmlns:dc="http://purl.org/dc/elements/1.1/" xmlns:cc="http://creativecommons.org/ns#" xmlns:rdf="http://www.w3.org/1999/02/22-rdf-syntax-ns#" xmlns:svg="http://www.w3.org/2000/svg" xmlns="http://www.w3.org/2000/svg" xmlns:sodipodi="http://sodipodi.sourceforge.net/DTD/sodipodi-0.dtd" xmlns:inkscape="http://www.inkscape.org/namespaces/inkscape" id="svg4975" height="16px" width="16px" version="1.1" inkscape:version="0.48.4 r9939" sodipodi:docname="link.svg">
  <defs id="defs12"/>
  <sodipodi:namedview pagecolor="#ffffff" bordercolor="#666666" borderopacity="1" objecttolerance="10" gridtolerance="10" guidetolerance="10" inkscape:pageopacity="0" inkscape:pageshadow="2" inkscape:window-width="1920" inkscape:window-height="1134" id="namedview10" showgrid="false" inkscape:zoom="16" inkscape:cx="6.0155556" inkscape:cy="12.496588" inkscape:window-x="0" inkscape:window-y="27" inkscape:window-maximized="1" inkscape:current-layer="svg4975" inkscape:snap-nodes="false" inkscape:snap-bbox="true">
    <inkscape:grid type="xygrid" id="grid3008" empspacing="5" visible="true" enabled="true" snapvisiblegridlinesonly="true"/>
  </sodipodi:namedview>
  <metadata id="metadata4980">
    <rdf:RDF>
      <cc:Work rdf:about="">
        <dc:format>image/svg+xml</dc:format>
        <dc:type rdf:resource="http://purl.org/dc/dcmitype/StillImage"/>
        <dc:title/>
      </cc:Work>
    </rdf:RDF>
  </metadata>
  <g id="g3789">
    <rect y="0" x="0" height="16" width="16" id="rect3787" style="opacity:0.50000000000000000;fill:#26292a;fill-opacity:0;stroke:none"/>
    <path inkscape:connector-curvature="0" style="text-indent:0;text-align:start;text-transform:none;direction:ltr;block-progression:tb;baseline-shift:baseline;color:#000000;fill:#bebebe;enable-background:accumulate" d="m 9.7478012,7.0109782 a 0.94437201,1 0 0 0 0.1868075,1.9780436 h 4.9814693 a 0.94437201,1 0 1 0 0,-1.9780436 H 9.9346087 a 0.94437201,1 0 0 0 -0.1868075,0 z" id="path12155"/>
    <path inkscape:connector-curvature="0" d="M 0.75713261,7.0093633 C 0.30297783,7.1107926 -0.03948832,7.603367 0.00670956,8.0887395 0.05294762,8.5740922 0.48143944,8.9856737 0.94572017,8.9906169 H 5.9083596 C 6.448651,9.0753148 7.0025311,8.5738941 7.0025311,8 c 0,-0.573894 -0.5538397,-1.0753146 -1.0941715,-0.9906169 H 0.94572017 c -0.0626942,-0.00693 -0.12593367,-0.00693 -0.18858756,0 z" style="text-indent:0;text-align:start;text-transform:none;direction:ltr;block-progression:tb;baseline-shift:baseline;color:#000000;fill:#bebebe;enable-background:accumulate" id="path12167"/>
    <path inkscape:connector-curvature="0" d="M 6.0576528,4.0163525 C 5.2038897,4.1457529 4.4898347,4.7102627 4.15236,5.4835811 4.0813863,5.6461297 4.0342138,5.8286352 3.9961879,6.0142839 H 11.996118 C 11.970028,5.8892941 11.942638,5.7520707 11.902453,5.6396737 11.556161,4.673113 10.633724,4.0163825 9.5598228,4.0163825 H 6.4325837 c -0.1269028,0 -0.2528561,-0.01846 -0.3748108,0 z M 3.9961179,10.010197 c 0.2351928,1.130756 1.2392401,1.997981 2.4362959,1.997981 h 3.1272391 c 1.1970551,0 2.2011831,-0.867156 2.4362951,-1.997981 z" style="text-indent:0;text-align:start;text-transform:none;direction:ltr;block-progression:tb;baseline-shift:baseline;color:#000000;fill:#bebebe;enable-background:new" id="path16654"/>
  </g>
</svg>